<?xml version="1.0" standalone="no"?>
<!DOCTYPE svg PUBLIC "-//W3C//DTD SVG 20010904//EN"
 "http://www.w3.org/TR/2001/REC-SVG-20010904/DTD/svg10.dtd">
<svg version="1.0" xmlns="http://www.w3.org/2000/svg"
 width="260.000000pt" height="260.000000pt" viewBox="0 0 260.000000 260.000000"
 preserveAspectRatio="xMidYMid meet">
<metadata>
Created by potrace 1.14, written by Peter Selinger 2001-2017
</metadata>
<g transform="translate(0.000000,260.000000) scale(0.100000,-0.100000)"
fill="#000000" stroke="none">
<path d="M607 1790 c-257 -80 -395 -374 -302 -645 24 -71 59 -127 116 -189
107 -115 247 -164 394 -137 65 12 184 67 226 104 30 27 79 97 79 112 0 9 -70
50 -74 43 -24 -38 -78 -95 -111 -118 -57 -40 -154 -64 -226 -57 -191 17 -344
211 -334 425 4 91 11 117 45 187 71 144 174 206 333 201 116 -3 193 -44 256
-133 23 -34 29 -34 75 -1 17 13 17 17 3 44 -22 41 -83 101 -134 130 -93 55
-234 69 -346 34z"/>
<path d="M1290 1313 l0 -493 50 0 50 0 2 396 3 396 25 -45 c14 -25 92 -163
175 -306 146 -255 150 -261 181 -261 31 0 35 5 205 304 96 167 176 302 178
300 3 -2 4 -180 4 -394 l0 -390 49 0 48 0 0 493 0 493 -47 -2 c-62 -2 -61 -2
-65 -17 -2 -7 -86 -157 -188 -334 l-185 -321 -36 62 c-19 33 -50 88 -68 121
-18 33 -36 65 -41 70 -4 6 -21 35 -37 65 -17 30 -69 122 -117 205 l-86 150
-50 1 -50 0 0 -493z"/>
</g>
</svg>
